<mxfile host="app.diagrams.net" agent="Mozilla/5.0 (Windows NT 10.0; Win64; x64) AppleWebKit/537.36 (KHTML, like Gecko) Chrome/138.0.0.0 Safari/537.36" version="28.0.4">
  <diagram name="Page-1" id="3voedzTlXzWFT6oO92my">
    <mxGraphModel dx="1770" dy="443" grid="1" gridSize="10" guides="1" tooltips="1" connect="1" arrows="1" fold="1" page="1" pageScale="1" pageWidth="850" pageHeight="1100" math="0" shadow="0">
      <root>
        <mxCell id="0" />
        <mxCell id="1" parent="0" />
        <mxCell id="VoUlzvWJck2k7zrZwwvK-206" value="" style="whiteSpace=wrap;html=1;aspect=fixed;" vertex="1" parent="1">
          <mxGeometry x="1260" y="1465" width="1690" height="1690" as="geometry" />
        </mxCell>
        <mxCell id="VoUlzvWJck2k7zrZwwvK-207" value="Consumer" style="swimlane;fontStyle=0;childLayout=stackLayout;horizontal=1;startSize=30;horizontalStack=0;resizeParent=1;resizeParentMax=0;resizeLast=0;collapsible=1;marginBottom=0;whiteSpace=wrap;html=1;" vertex="1" parent="1">
          <mxGeometry x="2100" y="1540" width="140" height="180" as="geometry" />
        </mxCell>
        <mxCell id="VoUlzvWJck2k7zrZwwvK-208" value="Consumer_id" style="text;strokeColor=#b85450;fillColor=#f8cecc;align=left;verticalAlign=middle;spacingLeft=4;spacingRight=4;overflow=hidden;points=[[0,0.5],[1,0.5]];portConstraint=eastwest;rotatable=0;whiteSpace=wrap;html=1;" vertex="1" parent="VoUlzvWJck2k7zrZwwvK-207">
          <mxGeometry y="30" width="140" height="30" as="geometry" />
        </mxCell>
        <mxCell id="VoUlzvWJck2k7zrZwwvK-209" value="Order_id" style="text;strokeColor=#6c8ebf;fillColor=#dae8fc;align=left;verticalAlign=middle;spacingLeft=4;spacingRight=4;overflow=hidden;points=[[0,0.5],[1,0.5]];portConstraint=eastwest;rotatable=0;whiteSpace=wrap;html=1;" vertex="1" parent="VoUlzvWJck2k7zrZwwvK-207">
          <mxGeometry y="60" width="140" height="30" as="geometry" />
        </mxCell>
        <mxCell id="VoUlzvWJck2k7zrZwwvK-210" value="Name" style="text;strokeColor=none;fillColor=none;align=left;verticalAlign=middle;spacingLeft=4;spacingRight=4;overflow=hidden;points=[[0,0.5],[1,0.5]];portConstraint=eastwest;rotatable=0;whiteSpace=wrap;html=1;" vertex="1" parent="VoUlzvWJck2k7zrZwwvK-207">
          <mxGeometry y="90" width="140" height="30" as="geometry" />
        </mxCell>
        <mxCell id="VoUlzvWJck2k7zrZwwvK-211" value="Email" style="text;strokeColor=none;fillColor=none;align=left;verticalAlign=middle;spacingLeft=4;spacingRight=4;overflow=hidden;points=[[0,0.5],[1,0.5]];portConstraint=eastwest;rotatable=0;whiteSpace=wrap;html=1;" vertex="1" parent="VoUlzvWJck2k7zrZwwvK-207">
          <mxGeometry y="120" width="140" height="30" as="geometry" />
        </mxCell>
        <mxCell id="VoUlzvWJck2k7zrZwwvK-212" value="Org" style="text;strokeColor=none;fillColor=none;align=left;verticalAlign=middle;spacingLeft=4;spacingRight=4;overflow=hidden;points=[[0,0.5],[1,0.5]];portConstraint=eastwest;rotatable=0;whiteSpace=wrap;html=1;" vertex="1" parent="VoUlzvWJck2k7zrZwwvK-207">
          <mxGeometry y="150" width="140" height="30" as="geometry" />
        </mxCell>
        <mxCell id="VoUlzvWJck2k7zrZwwvK-213" value="Order" style="swimlane;fontStyle=0;childLayout=stackLayout;horizontal=1;startSize=30;horizontalStack=0;resizeParent=1;resizeParentMax=0;resizeLast=0;collapsible=1;marginBottom=0;whiteSpace=wrap;html=1;" vertex="1" parent="1">
          <mxGeometry x="1740" y="1700" width="140" height="150" as="geometry" />
        </mxCell>
        <mxCell id="VoUlzvWJck2k7zrZwwvK-214" value="Order_id" style="text;strokeColor=#b85450;fillColor=#f8cecc;align=left;verticalAlign=middle;spacingLeft=4;spacingRight=4;overflow=hidden;points=[[0,0.5],[1,0.5]];portConstraint=eastwest;rotatable=0;whiteSpace=wrap;html=1;" vertex="1" parent="VoUlzvWJck2k7zrZwwvK-213">
          <mxGeometry y="30" width="140" height="30" as="geometry" />
        </mxCell>
        <mxCell id="VoUlzvWJck2k7zrZwwvK-215" value="Consumer_id" style="text;strokeColor=#6c8ebf;fillColor=#dae8fc;align=left;verticalAlign=middle;spacingLeft=4;spacingRight=4;overflow=hidden;points=[[0,0.5],[1,0.5]];portConstraint=eastwest;rotatable=0;whiteSpace=wrap;html=1;" vertex="1" parent="VoUlzvWJck2k7zrZwwvK-213">
          <mxGeometry y="60" width="140" height="30" as="geometry" />
        </mxCell>
        <mxCell id="VoUlzvWJck2k7zrZwwvK-216" value="Ordrer_date" style="text;strokeColor=none;fillColor=none;align=left;verticalAlign=middle;spacingLeft=4;spacingRight=4;overflow=hidden;points=[[0,0.5],[1,0.5]];portConstraint=eastwest;rotatable=0;whiteSpace=wrap;html=1;" vertex="1" parent="VoUlzvWJck2k7zrZwwvK-213">
          <mxGeometry y="90" width="140" height="30" as="geometry" />
        </mxCell>
        <mxCell id="VoUlzvWJck2k7zrZwwvK-217" value="Total_amount" style="text;strokeColor=none;fillColor=none;align=left;verticalAlign=middle;spacingLeft=4;spacingRight=4;overflow=hidden;points=[[0,0.5],[1,0.5]];portConstraint=eastwest;rotatable=0;whiteSpace=wrap;html=1;" vertex="1" parent="VoUlzvWJck2k7zrZwwvK-213">
          <mxGeometry y="120" width="140" height="30" as="geometry" />
        </mxCell>
        <mxCell id="VoUlzvWJck2k7zrZwwvK-218" value="Order Item" style="swimlane;fontStyle=0;childLayout=stackLayout;horizontal=1;startSize=30;horizontalStack=0;resizeParent=1;resizeParentMax=0;resizeLast=0;collapsible=1;marginBottom=0;whiteSpace=wrap;html=1;" vertex="1" parent="1">
          <mxGeometry x="1730" y="1970" width="140" height="180" as="geometry" />
        </mxCell>
        <mxCell id="VoUlzvWJck2k7zrZwwvK-219" value="Item_id" style="text;strokeColor=#b85450;fillColor=#f8cecc;align=left;verticalAlign=middle;spacingLeft=4;spacingRight=4;overflow=hidden;points=[[0,0.5],[1,0.5]];portConstraint=eastwest;rotatable=0;whiteSpace=wrap;html=1;" vertex="1" parent="VoUlzvWJck2k7zrZwwvK-218">
          <mxGeometry y="30" width="140" height="30" as="geometry" />
        </mxCell>
        <mxCell id="VoUlzvWJck2k7zrZwwvK-220" value="Order_id" style="text;strokeColor=#6c8ebf;fillColor=#dae8fc;align=left;verticalAlign=middle;spacingLeft=4;spacingRight=4;overflow=hidden;points=[[0,0.5],[1,0.5]];portConstraint=eastwest;rotatable=0;whiteSpace=wrap;html=1;" vertex="1" parent="VoUlzvWJck2k7zrZwwvK-218">
          <mxGeometry y="60" width="140" height="30" as="geometry" />
        </mxCell>
        <mxCell id="VoUlzvWJck2k7zrZwwvK-221" value="Material_id" style="text;strokeColor=#6c8ebf;fillColor=#dae8fc;align=left;verticalAlign=middle;spacingLeft=4;spacingRight=4;overflow=hidden;points=[[0,0.5],[1,0.5]];portConstraint=eastwest;rotatable=0;whiteSpace=wrap;html=1;" vertex="1" parent="VoUlzvWJck2k7zrZwwvK-218">
          <mxGeometry y="90" width="140" height="30" as="geometry" />
        </mxCell>
        <mxCell id="VoUlzvWJck2k7zrZwwvK-222" value="Quantity" style="text;strokeColor=none;fillColor=none;align=left;verticalAlign=middle;spacingLeft=4;spacingRight=4;overflow=hidden;points=[[0,0.5],[1,0.5]];portConstraint=eastwest;rotatable=0;whiteSpace=wrap;html=1;" vertex="1" parent="VoUlzvWJck2k7zrZwwvK-218">
          <mxGeometry y="120" width="140" height="30" as="geometry" />
        </mxCell>
        <mxCell id="VoUlzvWJck2k7zrZwwvK-223" value="Price_per_unit" style="text;strokeColor=none;fillColor=none;align=left;verticalAlign=middle;spacingLeft=4;spacingRight=4;overflow=hidden;points=[[0,0.5],[1,0.5]];portConstraint=eastwest;rotatable=0;whiteSpace=wrap;html=1;" vertex="1" parent="VoUlzvWJck2k7zrZwwvK-218">
          <mxGeometry y="150" width="140" height="30" as="geometry" />
        </mxCell>
        <mxCell id="VoUlzvWJck2k7zrZwwvK-224" value="Raw Material" style="swimlane;fontStyle=0;childLayout=stackLayout;horizontal=1;startSize=30;horizontalStack=0;resizeParent=1;resizeParentMax=0;resizeLast=0;collapsible=1;marginBottom=0;whiteSpace=wrap;html=1;" vertex="1" parent="1">
          <mxGeometry x="1900" y="2240" width="140" height="150" as="geometry" />
        </mxCell>
        <mxCell id="VoUlzvWJck2k7zrZwwvK-225" value="Material_id" style="text;strokeColor=#b85450;fillColor=#f8cecc;align=left;verticalAlign=middle;spacingLeft=4;spacingRight=4;overflow=hidden;points=[[0,0.5],[1,0.5]];portConstraint=eastwest;rotatable=0;whiteSpace=wrap;html=1;" vertex="1" parent="VoUlzvWJck2k7zrZwwvK-224">
          <mxGeometry y="30" width="140" height="30" as="geometry" />
        </mxCell>
        <mxCell id="VoUlzvWJck2k7zrZwwvK-226" value="Name" style="text;strokeColor=none;fillColor=none;align=left;verticalAlign=middle;spacingLeft=4;spacingRight=4;overflow=hidden;points=[[0,0.5],[1,0.5]];portConstraint=eastwest;rotatable=0;whiteSpace=wrap;html=1;" vertex="1" parent="VoUlzvWJck2k7zrZwwvK-224">
          <mxGeometry y="60" width="140" height="30" as="geometry" />
        </mxCell>
        <mxCell id="VoUlzvWJck2k7zrZwwvK-227" value="Description" style="text;strokeColor=none;fillColor=none;align=left;verticalAlign=middle;spacingLeft=4;spacingRight=4;overflow=hidden;points=[[0,0.5],[1,0.5]];portConstraint=eastwest;rotatable=0;whiteSpace=wrap;html=1;" vertex="1" parent="VoUlzvWJck2k7zrZwwvK-224">
          <mxGeometry y="90" width="140" height="30" as="geometry" />
        </mxCell>
        <mxCell id="VoUlzvWJck2k7zrZwwvK-228" value="Category" style="text;strokeColor=none;fillColor=none;align=left;verticalAlign=middle;spacingLeft=4;spacingRight=4;overflow=hidden;points=[[0,0.5],[1,0.5]];portConstraint=eastwest;rotatable=0;whiteSpace=wrap;html=1;" vertex="1" parent="VoUlzvWJck2k7zrZwwvK-224">
          <mxGeometry y="120" width="140" height="30" as="geometry" />
        </mxCell>
        <mxCell id="VoUlzvWJck2k7zrZwwvK-229" value="Quality Rating" style="swimlane;fontStyle=0;childLayout=stackLayout;horizontal=1;startSize=30;horizontalStack=0;resizeParent=1;resizeParentMax=0;resizeLast=0;collapsible=1;marginBottom=0;whiteSpace=wrap;html=1;" vertex="1" parent="1">
          <mxGeometry x="1620" y="2480" width="140" height="150" as="geometry" />
        </mxCell>
        <mxCell id="VoUlzvWJck2k7zrZwwvK-230" value="Quality_id" style="text;strokeColor=#b85450;fillColor=#f8cecc;align=left;verticalAlign=middle;spacingLeft=4;spacingRight=4;overflow=hidden;points=[[0,0.5],[1,0.5]];portConstraint=eastwest;rotatable=0;whiteSpace=wrap;html=1;" vertex="1" parent="VoUlzvWJck2k7zrZwwvK-229">
          <mxGeometry y="30" width="140" height="30" as="geometry" />
        </mxCell>
        <mxCell id="VoUlzvWJck2k7zrZwwvK-231" value="Material_id" style="text;strokeColor=#6c8ebf;fillColor=#dae8fc;align=left;verticalAlign=middle;spacingLeft=4;spacingRight=4;overflow=hidden;points=[[0,0.5],[1,0.5]];portConstraint=eastwest;rotatable=0;whiteSpace=wrap;html=1;" vertex="1" parent="VoUlzvWJck2k7zrZwwvK-229">
          <mxGeometry y="60" width="140" height="30" as="geometry" />
        </mxCell>
        <mxCell id="VoUlzvWJck2k7zrZwwvK-232" value="Supplier_id" style="text;strokeColor=#6c8ebf;fillColor=#dae8fc;align=left;verticalAlign=middle;spacingLeft=4;spacingRight=4;overflow=hidden;points=[[0,0.5],[1,0.5]];portConstraint=eastwest;rotatable=0;whiteSpace=wrap;html=1;" vertex="1" parent="VoUlzvWJck2k7zrZwwvK-229">
          <mxGeometry y="90" width="140" height="30" as="geometry" />
        </mxCell>
        <mxCell id="VoUlzvWJck2k7zrZwwvK-233" value="Aggregate Score" style="text;strokeColor=none;fillColor=none;align=left;verticalAlign=middle;spacingLeft=4;spacingRight=4;overflow=hidden;points=[[0,0.5],[1,0.5]];portConstraint=eastwest;rotatable=0;whiteSpace=wrap;html=1;" vertex="1" parent="VoUlzvWJck2k7zrZwwvK-229">
          <mxGeometry y="120" width="140" height="30" as="geometry" />
        </mxCell>
        <mxCell id="VoUlzvWJck2k7zrZwwvK-234" value="Availability" style="swimlane;fontStyle=0;childLayout=stackLayout;horizontal=1;startSize=30;horizontalStack=0;resizeParent=1;resizeParentMax=0;resizeLast=0;collapsible=1;marginBottom=0;whiteSpace=wrap;html=1;" vertex="1" parent="1">
          <mxGeometry x="1960" y="2520" width="140" height="180" as="geometry" />
        </mxCell>
        <mxCell id="VoUlzvWJck2k7zrZwwvK-235" value="Avail_id" style="text;strokeColor=#b85450;fillColor=#f8cecc;align=left;verticalAlign=middle;spacingLeft=4;spacingRight=4;overflow=hidden;points=[[0,0.5],[1,0.5]];portConstraint=eastwest;rotatable=0;whiteSpace=wrap;html=1;" vertex="1" parent="VoUlzvWJck2k7zrZwwvK-234">
          <mxGeometry y="30" width="140" height="30" as="geometry" />
        </mxCell>
        <mxCell id="VoUlzvWJck2k7zrZwwvK-236" value="Material_id" style="text;strokeColor=#6c8ebf;fillColor=#dae8fc;align=left;verticalAlign=middle;spacingLeft=4;spacingRight=4;overflow=hidden;points=[[0,0.5],[1,0.5]];portConstraint=eastwest;rotatable=0;whiteSpace=wrap;html=1;" vertex="1" parent="VoUlzvWJck2k7zrZwwvK-234">
          <mxGeometry y="60" width="140" height="30" as="geometry" />
        </mxCell>
        <mxCell id="VoUlzvWJck2k7zrZwwvK-237" value="Supplier_id" style="text;strokeColor=#6c8ebf;fillColor=#dae8fc;align=left;verticalAlign=middle;spacingLeft=4;spacingRight=4;overflow=hidden;points=[[0,0.5],[1,0.5]];portConstraint=eastwest;rotatable=0;whiteSpace=wrap;html=1;" vertex="1" parent="VoUlzvWJck2k7zrZwwvK-234">
          <mxGeometry y="90" width="140" height="30" as="geometry" />
        </mxCell>
        <mxCell id="VoUlzvWJck2k7zrZwwvK-238" value="Quantity" style="text;strokeColor=none;fillColor=none;align=left;verticalAlign=middle;spacingLeft=4;spacingRight=4;overflow=hidden;points=[[0,0.5],[1,0.5]];portConstraint=eastwest;rotatable=0;whiteSpace=wrap;html=1;" vertex="1" parent="VoUlzvWJck2k7zrZwwvK-234">
          <mxGeometry y="120" width="140" height="30" as="geometry" />
        </mxCell>
        <mxCell id="VoUlzvWJck2k7zrZwwvK-239" value="Unit" style="text;strokeColor=none;fillColor=none;align=left;verticalAlign=middle;spacingLeft=4;spacingRight=4;overflow=hidden;points=[[0,0.5],[1,0.5]];portConstraint=eastwest;rotatable=0;whiteSpace=wrap;html=1;" vertex="1" parent="VoUlzvWJck2k7zrZwwvK-234">
          <mxGeometry y="150" width="140" height="30" as="geometry" />
        </mxCell>
        <mxCell id="VoUlzvWJck2k7zrZwwvK-240" value="Review" style="swimlane;fontStyle=0;childLayout=stackLayout;horizontal=1;startSize=30;horizontalStack=0;resizeParent=1;resizeParentMax=0;resizeLast=0;collapsible=1;marginBottom=0;whiteSpace=wrap;html=1;" vertex="1" parent="1">
          <mxGeometry x="2240" y="2580" width="140" height="270" as="geometry" />
        </mxCell>
        <mxCell id="VoUlzvWJck2k7zrZwwvK-241" value="Review_id" style="text;strokeColor=#b85450;fillColor=#f8cecc;align=left;verticalAlign=middle;spacingLeft=4;spacingRight=4;overflow=hidden;points=[[0,0.5],[1,0.5]];portConstraint=eastwest;rotatable=0;whiteSpace=wrap;html=1;" vertex="1" parent="VoUlzvWJck2k7zrZwwvK-240">
          <mxGeometry y="30" width="140" height="30" as="geometry" />
        </mxCell>
        <mxCell id="VoUlzvWJck2k7zrZwwvK-242" value="Supplier_id" style="text;strokeColor=#6c8ebf;fillColor=#dae8fc;align=left;verticalAlign=middle;spacingLeft=4;spacingRight=4;overflow=hidden;points=[[0,0.5],[1,0.5]];portConstraint=eastwest;rotatable=0;whiteSpace=wrap;html=1;" vertex="1" parent="VoUlzvWJck2k7zrZwwvK-240">
          <mxGeometry y="60" width="140" height="30" as="geometry" />
        </mxCell>
        <mxCell id="VoUlzvWJck2k7zrZwwvK-243" value="Consumer_id" style="text;strokeColor=#6c8ebf;fillColor=#dae8fc;align=left;verticalAlign=middle;spacingLeft=4;spacingRight=4;overflow=hidden;points=[[0,0.5],[1,0.5]];portConstraint=eastwest;rotatable=0;whiteSpace=wrap;html=1;" vertex="1" parent="VoUlzvWJck2k7zrZwwvK-240">
          <mxGeometry y="90" width="140" height="30" as="geometry" />
        </mxCell>
        <mxCell id="VoUlzvWJck2k7zrZwwvK-244" value="order_id" style="text;strokeColor=#6c8ebf;fillColor=#dae8fc;align=left;verticalAlign=middle;spacingLeft=4;spacingRight=4;overflow=hidden;points=[[0,0.5],[1,0.5]];portConstraint=eastwest;rotatable=0;whiteSpace=wrap;html=1;" vertex="1" parent="VoUlzvWJck2k7zrZwwvK-240">
          <mxGeometry y="120" width="140" height="30" as="geometry" />
        </mxCell>
        <mxCell id="VoUlzvWJck2k7zrZwwvK-245" value="Rating" style="text;strokeColor=none;fillColor=none;align=left;verticalAlign=middle;spacingLeft=4;spacingRight=4;overflow=hidden;points=[[0,0.5],[1,0.5]];portConstraint=eastwest;rotatable=0;whiteSpace=wrap;html=1;" vertex="1" parent="VoUlzvWJck2k7zrZwwvK-240">
          <mxGeometry y="150" width="140" height="30" as="geometry" />
        </mxCell>
        <mxCell id="VoUlzvWJck2k7zrZwwvK-246" value="Rating" style="text;strokeColor=none;fillColor=none;align=left;verticalAlign=middle;spacingLeft=4;spacingRight=4;overflow=hidden;points=[[0,0.5],[1,0.5]];portConstraint=eastwest;rotatable=0;whiteSpace=wrap;html=1;" vertex="1" parent="VoUlzvWJck2k7zrZwwvK-240">
          <mxGeometry y="180" width="140" height="30" as="geometry" />
        </mxCell>
        <mxCell id="VoUlzvWJck2k7zrZwwvK-247" value="Comments" style="text;strokeColor=none;fillColor=none;align=left;verticalAlign=middle;spacingLeft=4;spacingRight=4;overflow=hidden;points=[[0,0.5],[1,0.5]];portConstraint=eastwest;rotatable=0;whiteSpace=wrap;html=1;" vertex="1" parent="VoUlzvWJck2k7zrZwwvK-240">
          <mxGeometry y="210" width="140" height="30" as="geometry" />
        </mxCell>
        <mxCell id="VoUlzvWJck2k7zrZwwvK-248" value="Review" style="text;strokeColor=none;fillColor=none;align=left;verticalAlign=middle;spacingLeft=4;spacingRight=4;overflow=hidden;points=[[0,0.5],[1,0.5]];portConstraint=eastwest;rotatable=0;whiteSpace=wrap;html=1;" vertex="1" parent="VoUlzvWJck2k7zrZwwvK-240">
          <mxGeometry y="240" width="140" height="30" as="geometry" />
        </mxCell>
        <mxCell id="VoUlzvWJck2k7zrZwwvK-249" value="Supplier" style="swimlane;fontStyle=0;childLayout=stackLayout;horizontal=1;startSize=30;horizontalStack=0;resizeParent=1;resizeParentMax=0;resizeLast=0;collapsible=1;marginBottom=0;whiteSpace=wrap;html=1;" vertex="1" parent="1">
          <mxGeometry x="2270" y="1910" width="140" height="180" as="geometry" />
        </mxCell>
        <mxCell id="VoUlzvWJck2k7zrZwwvK-250" value="Supplier_id" style="text;strokeColor=#b85450;fillColor=#f8cecc;align=left;verticalAlign=middle;spacingLeft=4;spacingRight=4;overflow=hidden;points=[[0,0.5],[1,0.5]];portConstraint=eastwest;rotatable=0;whiteSpace=wrap;html=1;" vertex="1" parent="VoUlzvWJck2k7zrZwwvK-249">
          <mxGeometry y="30" width="140" height="30" as="geometry" />
        </mxCell>
        <mxCell id="VoUlzvWJck2k7zrZwwvK-251" value="Material_id" style="text;strokeColor=#6c8ebf;fillColor=#dae8fc;align=left;verticalAlign=middle;spacingLeft=4;spacingRight=4;overflow=hidden;points=[[0,0.5],[1,0.5]];portConstraint=eastwest;rotatable=0;whiteSpace=wrap;html=1;" vertex="1" parent="VoUlzvWJck2k7zrZwwvK-249">
          <mxGeometry y="60" width="140" height="30" as="geometry" />
        </mxCell>
        <mxCell id="VoUlzvWJck2k7zrZwwvK-252" value="Name" style="text;strokeColor=none;fillColor=none;align=left;verticalAlign=middle;spacingLeft=4;spacingRight=4;overflow=hidden;points=[[0,0.5],[1,0.5]];portConstraint=eastwest;rotatable=0;whiteSpace=wrap;html=1;" vertex="1" parent="VoUlzvWJck2k7zrZwwvK-249">
          <mxGeometry y="90" width="140" height="30" as="geometry" />
        </mxCell>
        <mxCell id="VoUlzvWJck2k7zrZwwvK-253" value="Address" style="text;strokeColor=none;fillColor=none;align=left;verticalAlign=middle;spacingLeft=4;spacingRight=4;overflow=hidden;points=[[0,0.5],[1,0.5]];portConstraint=eastwest;rotatable=0;whiteSpace=wrap;html=1;" vertex="1" parent="VoUlzvWJck2k7zrZwwvK-249">
          <mxGeometry y="120" width="140" height="30" as="geometry" />
        </mxCell>
        <mxCell id="VoUlzvWJck2k7zrZwwvK-254" value="Contact" style="text;strokeColor=none;fillColor=none;align=left;verticalAlign=middle;spacingLeft=4;spacingRight=4;overflow=hidden;points=[[0,0.5],[1,0.5]];portConstraint=eastwest;rotatable=0;whiteSpace=wrap;html=1;" vertex="1" parent="VoUlzvWJck2k7zrZwwvK-249">
          <mxGeometry y="150" width="140" height="30" as="geometry" />
        </mxCell>
        <mxCell id="VoUlzvWJck2k7zrZwwvK-255" value="Pricing" style="swimlane;fontStyle=0;childLayout=stackLayout;horizontal=1;startSize=30;horizontalStack=0;resizeParent=1;resizeParentMax=0;resizeLast=0;collapsible=1;marginBottom=0;whiteSpace=wrap;html=1;" vertex="1" parent="1">
          <mxGeometry x="2400" y="2270" width="140" height="210" as="geometry" />
        </mxCell>
        <mxCell id="VoUlzvWJck2k7zrZwwvK-256" value="Pricing_id" style="text;strokeColor=#b85450;fillColor=#f8cecc;align=left;verticalAlign=middle;spacingLeft=4;spacingRight=4;overflow=hidden;points=[[0,0.5],[1,0.5]];portConstraint=eastwest;rotatable=0;whiteSpace=wrap;html=1;" vertex="1" parent="VoUlzvWJck2k7zrZwwvK-255">
          <mxGeometry y="30" width="140" height="30" as="geometry" />
        </mxCell>
        <mxCell id="VoUlzvWJck2k7zrZwwvK-257" value="Supplier_id" style="text;strokeColor=#6c8ebf;fillColor=#dae8fc;align=left;verticalAlign=middle;spacingLeft=4;spacingRight=4;overflow=hidden;points=[[0,0.5],[1,0.5]];portConstraint=eastwest;rotatable=0;whiteSpace=wrap;html=1;" vertex="1" parent="VoUlzvWJck2k7zrZwwvK-255">
          <mxGeometry y="60" width="140" height="30" as="geometry" />
        </mxCell>
        <mxCell id="VoUlzvWJck2k7zrZwwvK-258" value="Material_id" style="text;strokeColor=#6c8ebf;fillColor=#dae8fc;align=left;verticalAlign=middle;spacingLeft=4;spacingRight=4;overflow=hidden;points=[[0,0.5],[1,0.5]];portConstraint=eastwest;rotatable=0;whiteSpace=wrap;html=1;" vertex="1" parent="VoUlzvWJck2k7zrZwwvK-255">
          <mxGeometry y="90" width="140" height="30" as="geometry" />
        </mxCell>
        <mxCell id="VoUlzvWJck2k7zrZwwvK-259" value="Price" style="text;strokeColor=none;fillColor=none;align=left;verticalAlign=middle;spacingLeft=4;spacingRight=4;overflow=hidden;points=[[0,0.5],[1,0.5]];portConstraint=eastwest;rotatable=0;whiteSpace=wrap;html=1;" vertex="1" parent="VoUlzvWJck2k7zrZwwvK-255">
          <mxGeometry y="120" width="140" height="30" as="geometry" />
        </mxCell>
        <mxCell id="VoUlzvWJck2k7zrZwwvK-260" value="Valid from" style="text;strokeColor=none;fillColor=none;align=left;verticalAlign=middle;spacingLeft=4;spacingRight=4;overflow=hidden;points=[[0,0.5],[1,0.5]];portConstraint=eastwest;rotatable=0;whiteSpace=wrap;html=1;" vertex="1" parent="VoUlzvWJck2k7zrZwwvK-255">
          <mxGeometry y="150" width="140" height="30" as="geometry" />
        </mxCell>
        <mxCell id="VoUlzvWJck2k7zrZwwvK-261" value="Valid to" style="text;strokeColor=none;fillColor=none;align=left;verticalAlign=middle;spacingLeft=4;spacingRight=4;overflow=hidden;points=[[0,0.5],[1,0.5]];portConstraint=eastwest;rotatable=0;whiteSpace=wrap;html=1;" vertex="1" parent="VoUlzvWJck2k7zrZwwvK-255">
          <mxGeometry y="180" width="140" height="30" as="geometry" />
        </mxCell>
        <mxCell id="VoUlzvWJck2k7zrZwwvK-262" value="Contract" style="swimlane;fontStyle=0;childLayout=stackLayout;horizontal=1;startSize=30;horizontalStack=0;resizeParent=1;resizeParentMax=0;resizeLast=0;collapsible=1;marginBottom=0;whiteSpace=wrap;html=1;" vertex="1" parent="1">
          <mxGeometry x="2620" y="2280" width="140" height="240" as="geometry" />
        </mxCell>
        <mxCell id="VoUlzvWJck2k7zrZwwvK-263" value="Contract_id" style="text;strokeColor=#b85450;fillColor=#f8cecc;align=left;verticalAlign=middle;spacingLeft=4;spacingRight=4;overflow=hidden;points=[[0,0.5],[1,0.5]];portConstraint=eastwest;rotatable=0;whiteSpace=wrap;html=1;" vertex="1" parent="VoUlzvWJck2k7zrZwwvK-262">
          <mxGeometry y="30" width="140" height="30" as="geometry" />
        </mxCell>
        <mxCell id="VoUlzvWJck2k7zrZwwvK-264" value="Supplier_id" style="text;strokeColor=#6c8ebf;fillColor=#dae8fc;align=left;verticalAlign=middle;spacingLeft=4;spacingRight=4;overflow=hidden;points=[[0,0.5],[1,0.5]];portConstraint=eastwest;rotatable=0;whiteSpace=wrap;html=1;" vertex="1" parent="VoUlzvWJck2k7zrZwwvK-262">
          <mxGeometry y="60" width="140" height="30" as="geometry" />
        </mxCell>
        <mxCell id="VoUlzvWJck2k7zrZwwvK-265" value="Consumer_id" style="text;strokeColor=#6c8ebf;fillColor=#dae8fc;align=left;verticalAlign=middle;spacingLeft=4;spacingRight=4;overflow=hidden;points=[[0,0.5],[1,0.5]];portConstraint=eastwest;rotatable=0;whiteSpace=wrap;html=1;" vertex="1" parent="VoUlzvWJck2k7zrZwwvK-262">
          <mxGeometry y="90" width="140" height="30" as="geometry" />
        </mxCell>
        <mxCell id="VoUlzvWJck2k7zrZwwvK-266" value="Pricing_id" style="text;strokeColor=#6c8ebf;fillColor=#dae8fc;align=left;verticalAlign=middle;spacingLeft=4;spacingRight=4;overflow=hidden;points=[[0,0.5],[1,0.5]];portConstraint=eastwest;rotatable=0;whiteSpace=wrap;html=1;" vertex="1" parent="VoUlzvWJck2k7zrZwwvK-262">
          <mxGeometry y="120" width="140" height="30" as="geometry" />
        </mxCell>
        <mxCell id="VoUlzvWJck2k7zrZwwvK-267" value="Start date" style="text;strokeColor=none;fillColor=none;align=left;verticalAlign=middle;spacingLeft=4;spacingRight=4;overflow=hidden;points=[[0,0.5],[1,0.5]];portConstraint=eastwest;rotatable=0;whiteSpace=wrap;html=1;" vertex="1" parent="VoUlzvWJck2k7zrZwwvK-262">
          <mxGeometry y="150" width="140" height="30" as="geometry" />
        </mxCell>
        <mxCell id="VoUlzvWJck2k7zrZwwvK-268" value="End date" style="text;strokeColor=none;fillColor=none;align=left;verticalAlign=middle;spacingLeft=4;spacingRight=4;overflow=hidden;points=[[0,0.5],[1,0.5]];portConstraint=eastwest;rotatable=0;whiteSpace=wrap;html=1;" vertex="1" parent="VoUlzvWJck2k7zrZwwvK-262">
          <mxGeometry y="180" width="140" height="30" as="geometry" />
        </mxCell>
        <mxCell id="VoUlzvWJck2k7zrZwwvK-269" value="Terms" style="text;strokeColor=none;fillColor=none;align=left;verticalAlign=middle;spacingLeft=4;spacingRight=4;overflow=hidden;points=[[0,0.5],[1,0.5]];portConstraint=eastwest;rotatable=0;whiteSpace=wrap;html=1;" vertex="1" parent="VoUlzvWJck2k7zrZwwvK-262">
          <mxGeometry y="210" width="140" height="30" as="geometry" />
        </mxCell>
        <mxCell id="VoUlzvWJck2k7zrZwwvK-270" value="" style="endArrow=ERoneToMany;html=1;rounded=0;exitX=0.429;exitY=1.067;exitDx=0;exitDy=0;exitPerimeter=0;entryX=0.652;entryY=0.015;entryDx=0;entryDy=0;entryPerimeter=0;curved=1;edgeStyle=entityRelationEdgeStyle;fontSize=12;startArrow=ERmandOne;" edge="1" parent="1" source="VoUlzvWJck2k7zrZwwvK-217" target="VoUlzvWJck2k7zrZwwvK-218">
          <mxGeometry relative="1" as="geometry">
            <mxPoint x="2030" y="1820" as="sourcePoint" />
            <mxPoint x="2074" y="1850" as="targetPoint" />
            <Array as="points">
              <mxPoint x="2040" y="1830" />
            </Array>
          </mxGeometry>
        </mxCell>
        <mxCell id="VoUlzvWJck2k7zrZwwvK-271" value="includes" style="edgeLabel;resizable=0;html=1;;align=center;verticalAlign=middle;" connectable="0" vertex="1" parent="VoUlzvWJck2k7zrZwwvK-270">
          <mxGeometry relative="1" as="geometry" />
        </mxCell>
        <mxCell id="VoUlzvWJck2k7zrZwwvK-272" value="" style="endArrow=ERoneToMany;html=1;rounded=0;curved=1;edgeStyle=entityRelationEdgeStyle;fontSize=12;startArrow=ERmandOne;entryX=1;entryY=0.5;entryDx=0;entryDy=0;exitX=0.003;exitY=-0.126;exitDx=0;exitDy=0;exitPerimeter=0;" edge="1" parent="1" source="VoUlzvWJck2k7zrZwwvK-228" target="VoUlzvWJck2k7zrZwwvK-233">
          <mxGeometry relative="1" as="geometry">
            <mxPoint x="2080" y="2135.3333333333335" as="sourcePoint" />
            <mxPoint x="1870" y="2230" as="targetPoint" />
            <Array as="points">
              <mxPoint x="2020" y="2175" />
            </Array>
          </mxGeometry>
        </mxCell>
        <mxCell id="VoUlzvWJck2k7zrZwwvK-273" value="has quality" style="edgeLabel;html=1;align=center;verticalAlign=middle;resizable=0;points=[];" vertex="1" connectable="0" parent="VoUlzvWJck2k7zrZwwvK-272">
          <mxGeometry x="-0.0485" relative="1" as="geometry">
            <mxPoint x="2" y="4" as="offset" />
          </mxGeometry>
        </mxCell>
        <mxCell id="VoUlzvWJck2k7zrZwwvK-274" value="" style="endArrow=ERmandOne;html=1;rounded=0;entryX=0;entryY=0.5;entryDx=0;entryDy=0;startArrow=ERmandOne;curved=1;edgeStyle=entityRelationEdgeStyle;fontSize=12;exitX=0.437;exitY=1.056;exitDx=0;exitDy=0;exitPerimeter=0;" edge="1" parent="1" source="VoUlzvWJck2k7zrZwwvK-233" target="VoUlzvWJck2k7zrZwwvK-248">
          <mxGeometry width="50" height="50" relative="1" as="geometry">
            <mxPoint x="1940" y="2360" as="sourcePoint" />
            <mxPoint x="2260" y="2380" as="targetPoint" />
            <Array as="points">
              <mxPoint x="1950" y="2470" />
              <mxPoint x="2060" y="2540" />
              <mxPoint x="2020" y="2540" />
              <mxPoint x="2030" y="2520" />
              <mxPoint x="2040" y="2520" />
              <mxPoint x="2020" y="2540" />
            </Array>
          </mxGeometry>
        </mxCell>
        <mxCell id="VoUlzvWJck2k7zrZwwvK-275" value="summarized from" style="edgeLabel;html=1;align=center;verticalAlign=middle;resizable=0;points=[];" vertex="1" connectable="0" parent="VoUlzvWJck2k7zrZwwvK-274">
          <mxGeometry x="-0.2049" y="2" relative="1" as="geometry">
            <mxPoint as="offset" />
          </mxGeometry>
        </mxCell>
        <mxCell id="VoUlzvWJck2k7zrZwwvK-276" value="" style="endArrow=ERmandOne;html=1;rounded=0;entryX=0.219;entryY=1.067;entryDx=0;entryDy=0;entryPerimeter=0;exitX=0.195;exitY=0.015;exitDx=0;exitDy=0;exitPerimeter=0;startArrow=ERmandOne;curved=1;edgeStyle=entityRelationEdgeStyle;fontSize=12;" edge="1" parent="1" source="VoUlzvWJck2k7zrZwwvK-234" target="VoUlzvWJck2k7zrZwwvK-228">
          <mxGeometry width="50" height="50" relative="1" as="geometry">
            <mxPoint x="2120" y="2320" as="sourcePoint" />
            <mxPoint x="2170" y="2270" as="targetPoint" />
            <Array as="points">
              <mxPoint x="2110" y="2290" />
            </Array>
          </mxGeometry>
        </mxCell>
        <mxCell id="VoUlzvWJck2k7zrZwwvK-277" value="of material" style="edgeLabel;html=1;align=center;verticalAlign=middle;resizable=0;points=[];" vertex="1" connectable="0" parent="VoUlzvWJck2k7zrZwwvK-276">
          <mxGeometry x="0.025" y="-1" relative="1" as="geometry">
            <mxPoint as="offset" />
          </mxGeometry>
        </mxCell>
        <mxCell id="VoUlzvWJck2k7zrZwwvK-278" value="" style="endArrow=ERmandOne;html=1;rounded=0;entryX=0.767;entryY=1.089;entryDx=0;entryDy=0;entryPerimeter=0;exitX=0.705;exitY=-0.009;exitDx=0;exitDy=0;exitPerimeter=0;startArrow=ERmandOne;curved=1;edgeStyle=entityRelationEdgeStyle;fontSize=12;" edge="1" parent="1" source="VoUlzvWJck2k7zrZwwvK-234" target="VoUlzvWJck2k7zrZwwvK-228">
          <mxGeometry width="50" height="50" relative="1" as="geometry">
            <mxPoint x="2180" y="2320" as="sourcePoint" />
            <mxPoint x="2230" y="2270" as="targetPoint" />
            <Array as="points">
              <mxPoint x="2207" y="2290" />
            </Array>
          </mxGeometry>
        </mxCell>
        <mxCell id="VoUlzvWJck2k7zrZwwvK-279" value="has availabilty" style="edgeLabel;html=1;align=center;verticalAlign=middle;resizable=0;points=[];" vertex="1" connectable="0" parent="VoUlzvWJck2k7zrZwwvK-278">
          <mxGeometry x="0.0315" relative="1" as="geometry">
            <mxPoint as="offset" />
          </mxGeometry>
        </mxCell>
        <mxCell id="VoUlzvWJck2k7zrZwwvK-280" value="" style="endArrow=ERoneToMany;html=1;rounded=0;entryX=0.471;entryY=1.067;entryDx=0;entryDy=0;entryPerimeter=0;exitX=0.5;exitY=0;exitDx=0;exitDy=0;curved=1;edgeStyle=entityRelationEdgeStyle;fontSize=12;startArrow=ERoneToMany;" edge="1" parent="1" source="VoUlzvWJck2k7zrZwwvK-224" target="VoUlzvWJck2k7zrZwwvK-223">
          <mxGeometry width="50" height="50" relative="1" as="geometry">
            <mxPoint x="2070" y="2110" as="sourcePoint" />
            <mxPoint x="2120" y="2060" as="targetPoint" />
            <Array as="points">
              <mxPoint x="2090" y="2080" />
              <mxPoint x="2050" y="2090" />
              <mxPoint x="2060" y="2070" />
            </Array>
          </mxGeometry>
        </mxCell>
        <mxCell id="VoUlzvWJck2k7zrZwwvK-281" value="ordered material" style="edgeLabel;html=1;align=center;verticalAlign=middle;resizable=0;points=[];" vertex="1" connectable="0" parent="VoUlzvWJck2k7zrZwwvK-280">
          <mxGeometry x="0.0553" y="-2" relative="1" as="geometry">
            <mxPoint as="offset" />
          </mxGeometry>
        </mxCell>
        <mxCell id="VoUlzvWJck2k7zrZwwvK-282" value="" style="endArrow=ERoneToMany;html=1;rounded=0;exitX=0.876;exitY=0.013;exitDx=0;exitDy=0;entryX=0;entryY=0.5;entryDx=0;entryDy=0;edgeStyle=entityRelationEdgeStyle;fontSize=12;startArrow=ERmandOne;exitPerimeter=0;curved=1;" edge="1" parent="1" source="VoUlzvWJck2k7zrZwwvK-224" target="VoUlzvWJck2k7zrZwwvK-252">
          <mxGeometry relative="1" as="geometry">
            <mxPoint x="2180" y="1900" as="sourcePoint" />
            <mxPoint x="2280" y="1900" as="targetPoint" />
          </mxGeometry>
        </mxCell>
        <mxCell id="VoUlzvWJck2k7zrZwwvK-283" value="provides" style="edgeLabel;html=1;align=center;verticalAlign=middle;resizable=0;points=[];" vertex="1" connectable="0" parent="VoUlzvWJck2k7zrZwwvK-282">
          <mxGeometry x="0.0089" y="2" relative="1" as="geometry">
            <mxPoint as="offset" />
          </mxGeometry>
        </mxCell>
        <mxCell id="VoUlzvWJck2k7zrZwwvK-284" value="" style="endArrow=ERoneToMany;html=1;rounded=0;exitX=0.5;exitY=0;exitDx=0;exitDy=0;curved=1;entryX=0.095;entryY=0.978;entryDx=0;entryDy=0;entryPerimeter=0;edgeStyle=entityRelationEdgeStyle;fontSize=12;startArrow=ERmandOne;" edge="1" parent="1" source="VoUlzvWJck2k7zrZwwvK-240" target="VoUlzvWJck2k7zrZwwvK-254">
          <mxGeometry width="50" height="50" relative="1" as="geometry">
            <mxPoint x="2300" y="1970" as="sourcePoint" />
            <mxPoint x="2331" y="1870" as="targetPoint" />
            <Array as="points">
              <mxPoint x="2240" y="2050" />
              <mxPoint x="2260" y="2000" />
              <mxPoint x="2280" y="2240" />
            </Array>
          </mxGeometry>
        </mxCell>
        <mxCell id="VoUlzvWJck2k7zrZwwvK-285" value="receives" style="edgeLabel;html=1;align=center;verticalAlign=middle;resizable=0;points=[];" vertex="1" connectable="0" parent="VoUlzvWJck2k7zrZwwvK-284">
          <mxGeometry x="-0.1617" relative="1" as="geometry">
            <mxPoint as="offset" />
          </mxGeometry>
        </mxCell>
        <mxCell id="VoUlzvWJck2k7zrZwwvK-286" value="" style="endArrow=ERoneToMany;html=1;rounded=0;entryX=1.024;entryY=0.124;entryDx=0;entryDy=0;entryPerimeter=0;exitX=-0.005;exitY=0.089;exitDx=0;exitDy=0;exitPerimeter=0;curved=1;edgeStyle=entityRelationEdgeStyle;fontSize=12;startArrow=ERmandOne;" edge="1" parent="1" source="VoUlzvWJck2k7zrZwwvK-255" target="VoUlzvWJck2k7zrZwwvK-224">
          <mxGeometry width="50" height="50" relative="1" as="geometry">
            <mxPoint x="2230" y="2090" as="sourcePoint" />
            <mxPoint x="2280" y="2040" as="targetPoint" />
            <Array as="points">
              <mxPoint x="2280" y="2119" />
            </Array>
          </mxGeometry>
        </mxCell>
        <mxCell id="VoUlzvWJck2k7zrZwwvK-287" value="has price" style="edgeLabel;html=1;align=center;verticalAlign=middle;resizable=0;points=[];rotation=0;" vertex="1" connectable="0" parent="VoUlzvWJck2k7zrZwwvK-286">
          <mxGeometry x="-0.1682" relative="1" as="geometry">
            <mxPoint x="-19" y="-1" as="offset" />
          </mxGeometry>
        </mxCell>
        <mxCell id="VoUlzvWJck2k7zrZwwvK-288" value="" style="endArrow=ERoneToMany;html=1;rounded=0;entryX=0.5;entryY=0;entryDx=0;entryDy=0;curved=1;edgeStyle=entityRelationEdgeStyle;fontSize=12;startArrow=ERmandOne;exitX=0;exitY=0.5;exitDx=0;exitDy=0;" edge="1" parent="1" source="VoUlzvWJck2k7zrZwwvK-209" target="VoUlzvWJck2k7zrZwwvK-213">
          <mxGeometry relative="1" as="geometry">
            <mxPoint x="2200" y="1560" as="sourcePoint" />
            <mxPoint x="2200" y="1540" as="targetPoint" />
            <Array as="points">
              <mxPoint x="2130" y="1590" />
              <mxPoint x="2110" y="1580" />
              <mxPoint x="1860" y="1690" />
              <mxPoint x="1930" y="1710" />
            </Array>
          </mxGeometry>
        </mxCell>
        <mxCell id="VoUlzvWJck2k7zrZwwvK-289" value="places" style="edgeLabel;html=1;align=center;verticalAlign=middle;resizable=0;points=[];rotation=-30;" vertex="1" connectable="0" parent="VoUlzvWJck2k7zrZwwvK-288">
          <mxGeometry x="-0.0978" y="5" relative="1" as="geometry">
            <mxPoint x="-11" y="-3" as="offset" />
          </mxGeometry>
        </mxCell>
        <mxCell id="VoUlzvWJck2k7zrZwwvK-290" value="" style="endArrow=ERoneToMany;html=1;rounded=0;entryX=0;entryY=0;entryDx=0;entryDy=0;exitX=0.276;exitY=1.222;exitDx=0;exitDy=0;curved=1;edgeStyle=entityRelationEdgeStyle;fontSize=12;startArrow=ERmandOne;exitPerimeter=0;" edge="1" parent="1" source="VoUlzvWJck2k7zrZwwvK-212" target="VoUlzvWJck2k7zrZwwvK-240">
          <mxGeometry width="50" height="50" relative="1" as="geometry">
            <mxPoint x="2280" y="2160" as="sourcePoint" />
            <mxPoint x="2270" y="1840" as="targetPoint" />
            <Array as="points">
              <mxPoint x="2330" y="2000" />
            </Array>
          </mxGeometry>
        </mxCell>
        <mxCell id="VoUlzvWJck2k7zrZwwvK-291" value="writes" style="edgeLabel;html=1;align=center;verticalAlign=middle;resizable=0;points=[];" vertex="1" connectable="0" parent="VoUlzvWJck2k7zrZwwvK-290">
          <mxGeometry x="0.7541" y="-1" relative="1" as="geometry">
            <mxPoint as="offset" />
          </mxGeometry>
        </mxCell>
        <mxCell id="VoUlzvWJck2k7zrZwwvK-292" value="" style="endArrow=ERoneToMany;html=1;rounded=0;entryX=0.75;entryY=0;entryDx=0;entryDy=0;curved=1;edgeStyle=entityRelationEdgeStyle;fontSize=12;startArrow=ERmandOne;exitX=1;exitY=0.5;exitDx=0;exitDy=0;" edge="1" parent="1" source="VoUlzvWJck2k7zrZwwvK-210" target="VoUlzvWJck2k7zrZwwvK-262">
          <mxGeometry width="50" height="50" relative="1" as="geometry">
            <mxPoint x="2610" y="1600" as="sourcePoint" />
            <mxPoint x="2360" y="1580" as="targetPoint" />
            <Array as="points">
              <mxPoint x="2550" y="1740" />
              <mxPoint x="2595" y="1850" />
              <mxPoint x="2590" y="1830" />
            </Array>
          </mxGeometry>
        </mxCell>
        <mxCell id="VoUlzvWJck2k7zrZwwvK-293" value="enters" style="edgeLabel;html=1;align=center;verticalAlign=middle;resizable=0;points=[];" vertex="1" connectable="0" parent="VoUlzvWJck2k7zrZwwvK-292">
          <mxGeometry x="-0.5876" y="5" relative="1" as="geometry">
            <mxPoint x="69" y="132" as="offset" />
          </mxGeometry>
        </mxCell>
        <mxCell id="VoUlzvWJck2k7zrZwwvK-294" value="" style="endArrow=ERoneToMany;html=1;rounded=0;entryX=0;entryY=0;entryDx=0;entryDy=0;curved=1;exitX=1;exitY=0.5;exitDx=0;exitDy=0;edgeStyle=entityRelationEdgeStyle;fontSize=12;startArrow=ERmandOne;entryPerimeter=0;" edge="1" parent="1" source="VoUlzvWJck2k7zrZwwvK-254" target="VoUlzvWJck2k7zrZwwvK-263">
          <mxGeometry width="50" height="50" relative="1" as="geometry">
            <mxPoint x="2520" y="2325" as="sourcePoint" />
            <mxPoint x="2440" y="1810" as="targetPoint" />
            <Array as="points">
              <mxPoint x="2600" y="2035" />
            </Array>
          </mxGeometry>
        </mxCell>
        <mxCell id="VoUlzvWJck2k7zrZwwvK-295" value="signs" style="edgeLabel;html=1;align=center;verticalAlign=middle;resizable=0;points=[];" vertex="1" connectable="0" parent="VoUlzvWJck2k7zrZwwvK-294">
          <mxGeometry x="-0.0622" y="-2" relative="1" as="geometry">
            <mxPoint x="2" y="11" as="offset" />
          </mxGeometry>
        </mxCell>
        <mxCell id="VoUlzvWJck2k7zrZwwvK-296" value="" style="endArrow=ERoneToMany;html=1;rounded=0;entryX=0.5;entryY=0;entryDx=0;entryDy=0;exitX=0.867;exitY=1.2;exitDx=0;exitDy=0;edgeStyle=entityRelationEdgeStyle;fontSize=12;startArrow=ERmandOne;exitPerimeter=0;curved=1;" edge="1" parent="1" source="VoUlzvWJck2k7zrZwwvK-254" target="VoUlzvWJck2k7zrZwwvK-255">
          <mxGeometry width="50" height="50" relative="1" as="geometry">
            <mxPoint x="2340" y="2000" as="sourcePoint" />
            <mxPoint x="2390" y="1950" as="targetPoint" />
          </mxGeometry>
        </mxCell>
        <mxCell id="VoUlzvWJck2k7zrZwwvK-297" value="offers" style="edgeLabel;html=1;align=center;verticalAlign=middle;resizable=0;points=[];" vertex="1" connectable="0" parent="VoUlzvWJck2k7zrZwwvK-296">
          <mxGeometry x="-0.029" y="-1" relative="1" as="geometry">
            <mxPoint as="offset" />
          </mxGeometry>
        </mxCell>
        <mxCell id="VoUlzvWJck2k7zrZwwvK-298" value="" style="edgeStyle=entityRelationEdgeStyle;fontSize=12;html=1;endArrow=ERmandOne;startArrow=ERmandOne;rounded=0;exitX=0;exitY=0.5;exitDx=0;exitDy=0;" edge="1" parent="1" source="VoUlzvWJck2k7zrZwwvK-269" target="VoUlzvWJck2k7zrZwwvK-261">
          <mxGeometry width="100" height="100" relative="1" as="geometry">
            <mxPoint x="2520" y="2670" as="sourcePoint" />
            <mxPoint x="2620" y="2570" as="targetPoint" />
          </mxGeometry>
        </mxCell>
        <mxCell id="VoUlzvWJck2k7zrZwwvK-299" value="based on" style="edgeLabel;html=1;align=center;verticalAlign=middle;resizable=0;points=[];" vertex="1" connectable="0" parent="VoUlzvWJck2k7zrZwwvK-298">
          <mxGeometry x="0.1224" relative="1" as="geometry">
            <mxPoint as="offset" />
          </mxGeometry>
        </mxCell>
        <mxCell id="VoUlzvWJck2k7zrZwwvK-300" value="Order_logs" style="swimlane;fontStyle=0;childLayout=stackLayout;horizontal=1;startSize=30;horizontalStack=0;resizeParent=1;resizeParentMax=0;resizeLast=0;collapsible=1;marginBottom=0;whiteSpace=wrap;html=1;" vertex="1" parent="1">
          <mxGeometry x="1530" y="1700" width="140" height="210" as="geometry" />
        </mxCell>
        <mxCell id="VoUlzvWJck2k7zrZwwvK-301" value="Log_id" style="text;strokeColor=#b85450;fillColor=#f8cecc;align=left;verticalAlign=middle;spacingLeft=4;spacingRight=4;overflow=hidden;points=[[0,0.5],[1,0.5]];portConstraint=eastwest;rotatable=0;whiteSpace=wrap;html=1;" vertex="1" parent="VoUlzvWJck2k7zrZwwvK-300">
          <mxGeometry y="30" width="140" height="30" as="geometry" />
        </mxCell>
        <mxCell id="VoUlzvWJck2k7zrZwwvK-302" value="Order_id" style="text;strokeColor=#6c8ebf;fillColor=#dae8fc;align=left;verticalAlign=middle;spacingLeft=4;spacingRight=4;overflow=hidden;points=[[0,0.5],[1,0.5]];portConstraint=eastwest;rotatable=0;whiteSpace=wrap;html=1;" vertex="1" parent="VoUlzvWJck2k7zrZwwvK-300">
          <mxGeometry y="60" width="140" height="30" as="geometry" />
        </mxCell>
        <mxCell id="VoUlzvWJck2k7zrZwwvK-303" value="Item_id" style="text;strokeColor=#6c8ebf;fillColor=#dae8fc;align=left;verticalAlign=middle;spacingLeft=4;spacingRight=4;overflow=hidden;points=[[0,0.5],[1,0.5]];portConstraint=eastwest;rotatable=0;whiteSpace=wrap;html=1;" vertex="1" parent="VoUlzvWJck2k7zrZwwvK-300">
          <mxGeometry y="90" width="140" height="30" as="geometry" />
        </mxCell>
        <mxCell id="VoUlzvWJck2k7zrZwwvK-304" value="Material_id" style="text;strokeColor=#6c8ebf;fillColor=#dae8fc;align=left;verticalAlign=middle;spacingLeft=4;spacingRight=4;overflow=hidden;points=[[0,0.5],[1,0.5]];portConstraint=eastwest;rotatable=0;whiteSpace=wrap;html=1;" vertex="1" parent="VoUlzvWJck2k7zrZwwvK-300">
          <mxGeometry y="120" width="140" height="30" as="geometry" />
        </mxCell>
        <mxCell id="VoUlzvWJck2k7zrZwwvK-305" value="Consumetr_id" style="text;strokeColor=#6c8ebf;fillColor=#dae8fc;align=left;verticalAlign=middle;spacingLeft=4;spacingRight=4;overflow=hidden;points=[[0,0.5],[1,0.5]];portConstraint=eastwest;rotatable=0;whiteSpace=wrap;html=1;" vertex="1" parent="VoUlzvWJck2k7zrZwwvK-300">
          <mxGeometry y="150" width="140" height="30" as="geometry" />
        </mxCell>
        <mxCell id="VoUlzvWJck2k7zrZwwvK-306" value="Supplier_id" style="text;strokeColor=#6c8ebf;fillColor=#dae8fc;align=left;verticalAlign=middle;spacingLeft=4;spacingRight=4;overflow=hidden;points=[[0,0.5],[1,0.5]];portConstraint=eastwest;rotatable=0;whiteSpace=wrap;html=1;" vertex="1" parent="VoUlzvWJck2k7zrZwwvK-300">
          <mxGeometry y="180" width="140" height="30" as="geometry" />
        </mxCell>
        <mxCell id="VoUlzvWJck2k7zrZwwvK-307" value="" style="edgeStyle=entityRelationEdgeStyle;fontSize=12;html=1;endArrow=ERzeroToMany;endFill=1;rounded=0;exitX=0.003;exitY=0.171;exitDx=0;exitDy=0;exitPerimeter=0;entryX=0.75;entryY=0;entryDx=0;entryDy=0;" edge="1" parent="1" source="VoUlzvWJck2k7zrZwwvK-208" target="VoUlzvWJck2k7zrZwwvK-300">
          <mxGeometry width="100" height="100" relative="1" as="geometry">
            <mxPoint x="1810" y="1680" as="sourcePoint" />
            <mxPoint x="1680" y="1680" as="targetPoint" />
            <Array as="points">
              <mxPoint x="1860" y="1580" />
              <mxPoint x="1840" y="1600" />
              <mxPoint x="1650" y="1700" />
              <mxPoint x="1860" y="1590" />
              <mxPoint x="1870" y="1580" />
              <mxPoint x="1620" y="1700" />
            </Array>
          </mxGeometry>
        </mxCell>
        <mxCell id="VoUlzvWJck2k7zrZwwvK-308" value="Previous purchases" style="edgeLabel;html=1;align=center;verticalAlign=middle;resizable=0;points=[];" connectable="0" vertex="1" parent="VoUlzvWJck2k7zrZwwvK-307">
          <mxGeometry x="-0.0009" y="4" relative="1" as="geometry">
            <mxPoint as="offset" />
          </mxGeometry>
        </mxCell>
      </root>
    </mxGraphModel>
  </diagram>
</mxfile>
